<mxfile host="app.diagrams.net" agent="Mozilla/5.0 (Windows NT 10.0; Win64; x64) AppleWebKit/537.36 (KHTML, like Gecko) Chrome/136.0.0.0 Safari/537.36" version="26.3.0">
  <diagram name="Page-1" id="aS6uDX14ZXAOVZQscZ9d">
    <mxGraphModel dx="1213" dy="764" grid="1" gridSize="10" guides="1" tooltips="1" connect="1" arrows="1" fold="1" page="1" pageScale="1" pageWidth="1169" pageHeight="827" math="0" shadow="0">
      <root>
        <mxCell id="0" />
        <mxCell id="1" parent="0" />
        <mxCell id="6T71CiVX8oS_Pd1uGjJN-1" value="&lt;font style=&quot;font-size: 19px;&quot;&gt;AFE IC&lt;/font&gt;" style="rounded=0;whiteSpace=wrap;html=1;" vertex="1" parent="1">
          <mxGeometry x="472" y="332" width="225" height="164" as="geometry" />
        </mxCell>
        <mxCell id="6T71CiVX8oS_Pd1uGjJN-2" value="&lt;font style=&quot;font-size: 17px;&quot;&gt;NGFF B Key Connector&lt;/font&gt;" style="rounded=0;whiteSpace=wrap;html=1;" vertex="1" parent="1">
          <mxGeometry x="25" y="30" width="1120" height="60" as="geometry" />
        </mxCell>
        <mxCell id="6T71CiVX8oS_Pd1uGjJN-5" value="Transformer" style="rounded=0;whiteSpace=wrap;html=1;" vertex="1" parent="1">
          <mxGeometry x="890" y="250" width="120" height="60" as="geometry" />
        </mxCell>
        <mxCell id="6T71CiVX8oS_Pd1uGjJN-6" value="" style="endArrow=none;html=1;rounded=0;" edge="1" parent="1">
          <mxGeometry width="50" height="50" relative="1" as="geometry">
            <mxPoint x="697" y="414" as="sourcePoint" />
            <mxPoint x="860" y="414" as="targetPoint" />
          </mxGeometry>
        </mxCell>
        <mxCell id="6T71CiVX8oS_Pd1uGjJN-7" value="" style="endArrow=none;html=1;rounded=0;exitX=0.5;exitY=0;exitDx=0;exitDy=0;entryX=0.827;entryY=1.006;entryDx=0;entryDy=0;entryPerimeter=0;" edge="1" parent="1" source="6T71CiVX8oS_Pd1uGjJN-5" target="6T71CiVX8oS_Pd1uGjJN-2">
          <mxGeometry width="50" height="50" relative="1" as="geometry">
            <mxPoint x="950" y="200" as="sourcePoint" />
            <mxPoint x="1000" y="150" as="targetPoint" />
          </mxGeometry>
        </mxCell>
        <mxCell id="6T71CiVX8oS_Pd1uGjJN-15" value="isoSPI" style="edgeLabel;html=1;align=center;verticalAlign=middle;resizable=0;points=[];" vertex="1" connectable="0" parent="6T71CiVX8oS_Pd1uGjJN-7">
          <mxGeometry x="0.0485" y="-3" relative="1" as="geometry">
            <mxPoint as="offset" />
          </mxGeometry>
        </mxCell>
        <mxCell id="6T71CiVX8oS_Pd1uGjJN-10" value="" style="endArrow=none;html=1;rounded=0;entryX=0.061;entryY=1.028;entryDx=0;entryDy=0;exitX=0;exitY=0.5;exitDx=0;exitDy=0;entryPerimeter=0;" edge="1" parent="1" source="6T71CiVX8oS_Pd1uGjJN-1" target="6T71CiVX8oS_Pd1uGjJN-2">
          <mxGeometry width="50" height="50" relative="1" as="geometry">
            <mxPoint x="250" y="460" as="sourcePoint" />
            <mxPoint x="150" y="250" as="targetPoint" />
            <Array as="points">
              <mxPoint x="93" y="130" />
            </Array>
          </mxGeometry>
        </mxCell>
        <mxCell id="6T71CiVX8oS_Pd1uGjJN-18" value="Cell Vin" style="edgeLabel;html=1;align=center;verticalAlign=middle;resizable=0;points=[];" vertex="1" connectable="0" parent="6T71CiVX8oS_Pd1uGjJN-10">
          <mxGeometry x="0.07" y="2" relative="1" as="geometry">
            <mxPoint as="offset" />
          </mxGeometry>
        </mxCell>
        <mxCell id="6T71CiVX8oS_Pd1uGjJN-11" value="" style="endArrow=none;html=1;rounded=0;exitX=0;exitY=0.25;exitDx=0;exitDy=0;" edge="1" parent="1" source="6T71CiVX8oS_Pd1uGjJN-1">
          <mxGeometry width="50" height="50" relative="1" as="geometry">
            <mxPoint x="380" y="280" as="sourcePoint" />
            <mxPoint x="260" y="200" as="targetPoint" />
          </mxGeometry>
        </mxCell>
        <mxCell id="6T71CiVX8oS_Pd1uGjJN-12" value="Balancing" style="edgeLabel;html=1;align=center;verticalAlign=middle;resizable=0;points=[];" vertex="1" connectable="0" parent="6T71CiVX8oS_Pd1uGjJN-11">
          <mxGeometry x="0.1008" y="-1" relative="1" as="geometry">
            <mxPoint x="-1" as="offset" />
          </mxGeometry>
        </mxCell>
        <mxCell id="6T71CiVX8oS_Pd1uGjJN-13" value="100 ohm termination" style="rounded=0;whiteSpace=wrap;html=1;" vertex="1" parent="1">
          <mxGeometry x="860" y="384" width="120" height="60" as="geometry" />
        </mxCell>
        <mxCell id="6T71CiVX8oS_Pd1uGjJN-14" value="" style="endArrow=none;html=1;rounded=0;exitX=0.5;exitY=0;exitDx=0;exitDy=0;entryX=0.5;entryY=1;entryDx=0;entryDy=0;" edge="1" parent="1" source="6T71CiVX8oS_Pd1uGjJN-13" target="6T71CiVX8oS_Pd1uGjJN-5">
          <mxGeometry width="50" height="50" relative="1" as="geometry">
            <mxPoint x="970" y="380" as="sourcePoint" />
            <mxPoint x="1020" y="330" as="targetPoint" />
            <Array as="points">
              <mxPoint x="950" y="350" />
            </Array>
          </mxGeometry>
        </mxCell>
        <mxCell id="6T71CiVX8oS_Pd1uGjJN-16" value="Indicator LEDs" style="rounded=0;whiteSpace=wrap;html=1;" vertex="1" parent="1">
          <mxGeometry x="200" y="140" width="120" height="60" as="geometry" />
        </mxCell>
        <mxCell id="6T71CiVX8oS_Pd1uGjJN-17" value="" style="endArrow=none;html=1;rounded=0;exitX=0.5;exitY=0;exitDx=0;exitDy=0;entryX=0.21;entryY=0.983;entryDx=0;entryDy=0;entryPerimeter=0;" edge="1" parent="1" source="6T71CiVX8oS_Pd1uGjJN-16" target="6T71CiVX8oS_Pd1uGjJN-2">
          <mxGeometry width="50" height="50" relative="1" as="geometry">
            <mxPoint x="420" y="190" as="sourcePoint" />
            <mxPoint x="470" y="140" as="targetPoint" />
          </mxGeometry>
        </mxCell>
        <mxCell id="6T71CiVX8oS_Pd1uGjJN-19" value="Regulator" style="rounded=0;whiteSpace=wrap;html=1;" vertex="1" parent="1">
          <mxGeometry x="150" y="540" width="120" height="60" as="geometry" />
        </mxCell>
        <mxCell id="6T71CiVX8oS_Pd1uGjJN-20" value="" style="endArrow=none;html=1;rounded=0;entryX=0;entryY=0.75;entryDx=0;entryDy=0;exitX=0.5;exitY=0;exitDx=0;exitDy=0;" edge="1" parent="1" source="6T71CiVX8oS_Pd1uGjJN-19" target="6T71CiVX8oS_Pd1uGjJN-1">
          <mxGeometry width="50" height="50" relative="1" as="geometry">
            <mxPoint x="260" y="460" as="sourcePoint" />
            <mxPoint x="310" y="410" as="targetPoint" />
            <Array as="points">
              <mxPoint x="300" y="455" />
            </Array>
          </mxGeometry>
        </mxCell>
        <mxCell id="6T71CiVX8oS_Pd1uGjJN-22" value="V+" style="edgeLabel;html=1;align=center;verticalAlign=middle;resizable=0;points=[];" vertex="1" connectable="0" parent="6T71CiVX8oS_Pd1uGjJN-20">
          <mxGeometry x="-0.4147" y="-1" relative="1" as="geometry">
            <mxPoint as="offset" />
          </mxGeometry>
        </mxCell>
        <mxCell id="6T71CiVX8oS_Pd1uGjJN-21" value="" style="endArrow=none;html=1;rounded=0;exitX=1;exitY=0.5;exitDx=0;exitDy=0;entryX=0.25;entryY=1;entryDx=0;entryDy=0;" edge="1" parent="1" source="6T71CiVX8oS_Pd1uGjJN-19" target="6T71CiVX8oS_Pd1uGjJN-1">
          <mxGeometry width="50" height="50" relative="1" as="geometry">
            <mxPoint x="370" y="590" as="sourcePoint" />
            <mxPoint x="420" y="540" as="targetPoint" />
            <Array as="points">
              <mxPoint x="440" y="570" />
            </Array>
          </mxGeometry>
        </mxCell>
        <mxCell id="6T71CiVX8oS_Pd1uGjJN-23" value="5V0" style="edgeLabel;html=1;align=center;verticalAlign=middle;resizable=0;points=[];" vertex="1" connectable="0" parent="6T71CiVX8oS_Pd1uGjJN-21">
          <mxGeometry x="0.5176" relative="1" as="geometry">
            <mxPoint as="offset" />
          </mxGeometry>
        </mxCell>
        <mxCell id="6T71CiVX8oS_Pd1uGjJN-24" value="Thermistor handling" style="rounded=0;whiteSpace=wrap;html=1;" vertex="1" parent="1">
          <mxGeometry x="800" y="560" width="120" height="60" as="geometry" />
        </mxCell>
      </root>
    </mxGraphModel>
  </diagram>
</mxfile>
